<svg xmlns="http://www.w3.org/2000/svg" xmlns:xlink="http://www.w3.org/1999/xlink" xmlns:inkscape="http://www.inkscape.org/namespaces/inkscape" version="1.1" width="500" height="500" viewBox="0 0 500 500">
<defs>
<clipPath id="clip_1">
<path transform="matrix(1,0,0,-1,0,500)" d="M0 500H500V0H0Z"/>
</clipPath>
</defs>
<g inkscape:groupmode="layer" inkscape:label="black bg">
<path transform="matrix(1,0,0,-1,0,500)" d="M0 0H500V500H0Z"/>
</g>
<g inkscape:groupmode="layer" inkscape:label="edit board">
</g>
<g inkscape:groupmode="layer" inkscape:label="fonts &amp; colors">
</g>
<g inkscape:groupmode="layer" inkscape:label="white">
<g clip-path="url(#clip_1)">
<path transform="matrix(1,0,0,-1,224.0034,214.2601)" d="M0 0C2.003 4.798 6.84 12.722 10.907 18.604 7.549 18.146 4.338 17.562 1.898 17.019 1.856 16.999 1.813 16.999 1.773 16.999 1.48 16.999 1.23 17.249 1.23 17.541 1.23 17.812 1.418 18.02 1.668 18.062 4.338 18.667 7.987 19.334 11.762 19.793 13.286 21.649 14.871 23.881 15.975 24.758 16.08 24.84 16.205 24.903 16.351 24.903 16.643 24.903 16.893 24.653 16.893 24.361 16.893 24.215 16.83 24.068 16.726 23.964 15.85 23.088 14.453 21.399 13.201 19.96 16.748 20.336 20.313 20.481 23.213 20.211 23.505 20.189 23.713 19.96 23.713 19.668 23.713 19.376 23.462 19.126 23.171 19.126H23.108C20.022 19.418 16.142 19.209 12.346 18.771 8.53 13.328 3.795 5.716 1.48 .689 1.773 .584 1.856 .334 1.71 0 1.376-.771 .876-1.543 .375-1.543-.355-1.543-.334-.792 0 0" fill="#ffffff"/>
<path transform="matrix(1,0,0,-1,235.9465,209.6088)" d="M0 0C-.146-.313-.083-.521 .272-.083 .397 .063 .96 .75 1.252 1.127 2.107 2.169 3.046 3.379 4.026 4.526 7.008 7.988 8.948 9.573 10.324 9.573 11.325 9.573 11.825 8.864 11.825 7.696 11.825 6.883 11.596 5.839 11.388 4.901 11.2 4.025 11.033 3.254 11.033 2.712 11.033 1.627 11.451 1.21 12.348 1.21 14.328 1.21 18.604 4.505 22.149 7.654 22.233 7.738 22.358 7.801 22.504 7.801 22.796 7.801 23.046 7.55 23.046 7.259 23.046 7.091 22.983 6.945 22.859 6.862 17.957 2.482 14.203 .125 12.348 .125 10.866 .125 9.948 1.022 9.948 2.712 9.948 3.379 10.136 4.276 10.345 5.131 10.533 6.069 10.741 6.987 10.741 7.696 10.741 8.343 10.616 8.488 10.324 8.488 9.365 8.488 7.571 6.966 4.859 3.817 3.901 2.69 2.941 1.502 2.107 .437 .46-1.606-.583-3.025-1.23-3.025-1.647-3.025-1.918-2.69-1.918-2.252-1.918 .23 6.571 13.452 11.493 19.063 12.097 19.792 12.64 20.356 13.119 20.815 13.39 21.064 13.682 21.211 13.953 21.211 14.287 21.211 14.579 20.961 14.579 20.669 14.579 20.022 13.432 19.23 12.431 18.437 8.343 13.89 1.773 3.817 0 0" fill="#ffffff"/>
<path transform="matrix(1,0,0,-1,263.5859,201.07819)" d="M0 0C0 .417-.23 .605-.813 .605-2.544 .605-4.797-1.46-5.777-3.587-1.23-2.732 0-.709 0 0M-7.362-5.589C-7.362-2.399-3.712 1.689-.813 1.689 .355 1.689 1.085 1.043 1.085 0 1.085-2.044-2.19-4.109-6.174-4.756-6.236-5.047-6.277-5.319-6.277-5.589-6.277-7.133-5.277-7.946-3.316-7.946-.96-7.946 4.171-6.341 7.591-1.794 7.696-1.647 7.863-1.544 8.051-1.544 8.342-1.544 8.593-1.794 8.593-2.086 8.593-2.19 8.572-2.294 8.509-2.399 4.859-7.259-.792-9.031-3.316-9.031-5.839-9.031-7.362-7.759-7.362-5.589" fill="#ffffff"/>
<path transform="matrix(1,0,0,-1,226.926,226.93701)" d="M0 0V-12.24H16.113V-15.089H0V-28.308H-3.293V2.849H18.071V0Z" fill="#ffffff"/>
<path transform="matrix(1,0,0,-1,268.6741,244.251)" d="M0 0-7.478 16.735-14.955 0ZM1.202-2.671H-16.157L-19.896-10.994H-23.323L-9.08 20.163H-5.831L8.413-10.994H4.941Z" fill="#ffffff"/>
<path transform="matrix(1,0,0,-1,279.2649,251.4619)" d="M0 0 1.291 2.537C3.517 .356 7.478-1.246 11.573-1.246 17.403-1.246 19.94 1.202 19.94 4.273 19.94 12.819 .757 7.567 .757 19.095 .757 23.679 4.318 27.641 12.24 27.641 15.757 27.641 19.406 26.617 21.899 24.881L20.786 22.255C18.116 23.991 15 24.836 12.24 24.836 6.543 24.836 4.006 22.3 4.006 19.184 4.006 10.638 23.19 15.801 23.19 4.451 23.19-.134 19.54-4.05 11.573-4.05 6.899-4.05 2.314-2.403 0 0" fill="#ffffff"/>
<path transform="matrix(1,0,0,-1,335.6565,224.08841)" d="M0 0V-31.157H-3.249V-16.78H-22.745V-31.157H-26.038V0H-22.745V-13.887H-3.249V0Z" fill="#ffffff"/>
<path transform="matrix(1,0,0,-1,0,500)" d="M345.802 275.912H349.095V244.75499H345.802Z" fill="#ffffff"/>
<path transform="matrix(1,0,0,-1,385.9031,239.6665)" d="M0 0C0 7.433-5.563 12.908-13.041 12.908-20.563 12.908-26.171 7.433-26.171 0-26.171-7.433-20.563-12.908-13.041-12.908-5.563-12.908 0-7.433 0 0M-29.421 0C-29.421 9.08-22.478 15.845-13.041 15.845-3.694 15.845 3.294 9.125 3.294 0 3.294-9.125-3.694-15.845-13.041-15.845-22.478-15.845-29.421-9.08-29.421 0" fill="#ffffff"/>
<path transform="matrix(1,0,0,-1,422.6204,224.08841)" d="M0 0V-31.157H-2.715L-22.745-5.875V-31.157H-26.038V0H-23.323L-3.249-25.281V0Z" fill="#ffffff"/>
<path transform="matrix(1,0,0,-1,254.8735,285.5422)" d="M0 0C0 6.96-4.664 10.927-13.572 10.927H-25.405V-10.927H-13.572C-4.664-10.927 0-6.96 0 0M6.959 0C6.959-10.579-.696-16.983-13.363-16.983H-25.405V-31.738H-32.365V16.983H-13.363C-.696 16.983 6.959 10.579 6.959 0" fill="#ffffff"/>
<path transform="matrix(1,0,0,-1,298.2319,299.5318)" d="M0 0-10.51 23.873-21.019 0ZM2.436-5.568H-23.455L-28.814-17.748H-35.983L-13.92 30.972H-7.03L15.103-17.748H7.795Z" fill="#ffffff"/>
<path transform="matrix(1,0,0,-1,401.5381,274.6151)" d="M0 0H-16.704V6.056H23.595V0H6.891V-42.665H0Z" fill="#ffffff"/>
<path transform="matrix(1,0,0,-1,454.7568,300.4365)" d="M0 0V-16.844H-6.89V.139L-26.239 31.877H-18.792L-3.202 6.195 12.459 31.877H19.349Z" fill="#ffffff"/>
<path transform="matrix(1,0,0,-1,330.4442,286.6172)" d="M0 0C3.353-3.928 3.727-9.113 .835-11.582-2.057-14.05-7.119-12.867-10.472-8.939-13.825-5.012-14.199 .174-11.307 2.642-8.416 5.11-3.353 3.928 0 0" fill="#ffffff"/>
<path transform="matrix(1,0,0,-1,360.1307,281.52619)" d="M0 0C-1.201-5.023 .824-9.811 4.521-10.695 8.22-11.579 12.191-8.224 13.391-3.201 14.592 1.821 12.567 6.61 8.87 7.494 5.172 8.377 1.201 5.023 0 0" fill="#ffffff"/>
<path transform="matrix(1,0,0,-1,345.0362,271.6561)" d="M0 0C-.705-5.116 1.777-9.684 5.544-10.202 9.311-10.721 12.935-6.994 13.64-1.878 14.344 3.238 11.862 7.805 8.096 8.324 4.329 8.842 .705 5.116 0 0" fill="#ffffff"/>
<path transform="matrix(1,0,0,-1,327.9542,280.2482)" d="M0 0C2.514-4.511 7.244-6.667 10.566-4.817 13.887-2.966 14.541 2.192 12.027 6.702 9.513 11.214 4.783 13.37 1.461 11.519-1.86 9.669-2.514 4.511 0 0" fill="#ffffff"/>
<path transform="matrix(1,0,0,-1,343.1134,284.5076)" d="M0 0C-1.053-.614-1.991-1.457-2.735-2.419-5.006-5.354-5.284-9.124-6.581-12.478-7.818-15.679-10.833-17.727-12.679-20.534-14.308-23.012-14.991-26.143-14.323-29.032-13.654-31.921-11.577-34.498-8.811-35.566-.991-38.585 4.023-30.084 11.302-30.276 12.971-30.32 14.575-30.915 16.229-31.138 21.776-31.887 28.008-27.892 28.759-22.144 29.129-19.31 28.089-16.325 26.038-14.335 23.38-11.756 19.44-10.993 16.454-8.804 14.257-7.194 12.685-4.897 10.841-2.894 8.997-.89 6.645 .924 3.925 1.039 2.544 1.098 1.197 .697 0 0" fill="#ffffff"/>
<path transform="matrix(1,0,0,-1,160.5773,286.57)" d="M0 0C4.84-5.71 10.72-10.55 17.45-14.09 22.25-16.83 18.24-24.02 13.32-21.17-18.36-1.89-30.41 44.56-5.96 73.83-5.95 73.91-4.91 73.04-4.89 73.05-6.49 70.8-7.94 68.46-9.24 66.04-9.34 65.87-9.43 65.69-9.52 65.51-19.46 45.69-15.81 21.59-3.09 3.95-2.3 3.35-1.45 2.92-.51 2.77 1.04 2.55 2.99 2.93 4.81 3.15 23.7 6.46 44.93 22.14 45.51 42.63 45.71 54.13 37.29 62.92 29.57 70.47 24.2 75.78 18.42 80.69 12.21 84.98 6.05 89.22-.57 92.9-7.61 95.38-11.24 96.76-14.95 97.42-18.62 98.79-22.12 100.07-25.48 102.2-29.1 103.17-43.33 107.65-58.77 103.69-71.36 96.21-72.69 95.37-74.53 94.4-76.09 93.73-73.16 91.37-71.11 88.89-69.67 86.53-67.61 87.71-65.09 87.87-62.96 86.69L-36.99 72.3C-33.36 70.29-32.43 65.26-35.06 61.6-40.91 53.46-52.18 42.27-66.36 49.91-78.98 56.71-77.54 69.82-74.34 79.23-75.66 82.6-78.52 87.58-84.54 91.78-85.01 91.74-85.48 91.72-85.95 91.7-87.9 91.6-92.59 91.28-94.57 91.18L-117.57 89.79C-117.76 89.78-117.96 89.78-118.16 89.76-116.47 88.3-115.41 86.14-115.41 83.74-115.41 79.32-118.99 75.74-123.41 75.74-125.86 75.74-128.06 76.85-129.53 78.59-128.89 70.25-126.56 61.65-122.47 54.31-118.42 46.64-111.43 41.17-103.93 37.35-99.12 34.99-93.81 33.92-88.59 34.89-88.15 34.55-88 33.88-87.67 33.23-87.32 32.49-87.28 31.33-87.35 30.64-87.39 30.38-87.45 30.15-87.54 30.06-87.71 29.89-87.94 29.94-88.14 29.86-92.25 29.14-96.28 29.47-100.14 30.54-100.22 30.4-100.36 30.29-100.57 30.24-112.97 27.88-124.07 17.37-123.43 4.45-123.26 1.03-122.81-3.79-119.91-5.59-118.74-6.28-116.99-6.2-115.31-5.57-111.72-4.27-110.69 0-109.58 3.52-106.55 15.53-101.74 25.22-88.73 28.39-87.97 28.6-87.54 27.49-88.28 27.16-93.43 25.08-97.38 21.93-100.15 17.76-92.09 15.92-82.7 17.83-77.06 24.24-76.52 24.89-75.5 24.07-76.04 23.4-80.21 17.84-86.97 14.67-93.84 14.13-96.16 13.94-98.4 13.93-100.85 14.29-101.25 14.35-101.59 14.54-101.85 14.81-102.76 12.95-103.49 10.93-104.03 8.75-105.36 4.46-105.79 0-107.95-4.22-110.27-9.23-116.94-12.1-122.01-9.31-126.7-6.53-127.36-.44-127.42 4.37-127.57 9.11-126.11 13.94-123.63 17.91-118.97 25.37-110.95 30.15-102.64 31.34-109.7 33.92-116.11 38.82-121.27 44-129.62 53.77-133.48 66.21-134.41 78.85-136.27 88.93-128.41 94.6-117.75 94.56L-105.59 95.26C-110.77 100.22-108.84 107.99-106.81 112.89-105.78 115.38-102.94 116.5-100.76 115.3L-85.21 106.67C-83.03 105.47-82.48 102.46-84.05 100.26-84.33 99.88-84.62 99.48-84.94 99.08-83.49 98.43-82.16 97.74-80.93 97.03-79.25 97.43-77.63 98.02-76.12 98.84-59.2 109.36-37.87 114.11-19.55 103.97-15.33 101.91-10.54 101.13-6.15 99.42-2.42 98.11 1.12 96.37 4.6 94.55 14.87 88.91 24.06 81.49 32.3 73.21 40.68 64.96 49.4 55.14 49.05 42.6 48.23 21.09 27.76 5.32 8.15 .92 5.63 .56 2.72-.21 0 0" fill="#ffffff"/>
<path transform="matrix(1,0,0,-1,89.0315,270.383)" d="M0 0C11.992-4.173 22.283-12.598 29.546-23.026 31.992-26.655 34.059-30.684 35.389-35.133 36.19-37.648 34.77-40.343 32.239-41.096 29.474-41.951 26.526-40.015 26.197-37.144 25.336-30.123 21.858-23.012 17.185-16.804 12.425-10.568 6.516-4.931-.493-1.222-1.208-.885-.772 .26 0 0" fill="#ffffff"/>
<path transform="matrix(1,0,0,-1,158.1774,305.16999)" d="M0 0-1-20.14C-1.23-24.84-6.19-27.79-10.43-25.74L-33.76-14.49C-33.82-14.46-33.89-14.43-33.95-14.39-36.49-18.11-40.69-20.63-45.53-20.84-52.23-21.14-58.08-16.92-60.16-10.88L-83.57-16.49C-88.16-17.59-92.37-13.66-91.6-9.01L-88.3 10.88C-87.53 15.52-82.27 17.88-78.29 15.36L-58.14 2.61C-55.59 6.14-51.51 8.5-46.82 8.71-39.86 9.02-33.81 4.46-31.97-1.95L-8.83 6.51C-4.41 8.12 .24 4.7 0 0" fill="#ffffff"/>
<g inkscape:groupmode="layer" inkscape:label="black">
</g>
<g inkscape:groupmode="layer" inkscape:label="full color">
</g>
</g>
</g>
</svg>
