<svg xmlns="http://www.w3.org/2000/svg" xmlns:xlink="http://www.w3.org/1999/xlink" xmlns:inkscape="http://www.inkscape.org/namespaces/inkscape" version="1.1" width="500" height="500" viewBox="0 0 500 500">
<defs>
<path id="font_1_2" d="M.13240052 .10598755C.11039734 .10240173 .09559631 .099594119 .08319092 .09559631 .076797489 .09359741 .07159424 .090789798 .06838989 .085998538 .06478882 .08079529 .06678772 .072387699 .07119751 .069992069 .08239746 .06399536 .108795169 .07640076 .13198853 .08479309 .2071991 .099990848 .2987976 .115600589 .3919983 .12599182 .2823944 .015197754 .16999817-.08441162 .08558655-.08441162 .06159973-.08441162 .035995485-.0716095 .01838684-.05000305 .01638794-.04800415 .013595581-.046401979 .010391235-.046401979 .0047912599-.046401979 0-.051208497 0-.05680847 0-.0592041 .00079345706-.06161499 .0023956299-.06361389 .023590088-.08920288 .05558777-.10520935 .08558655-.10520935 .18199158-.10520935 .30760194 .010391235 .4243927 .1295929 .48080445 .13519287 .5368042 .13919068 .58999636 .13999939 .5632019 .09359741 .54319766 .051193239 .54319766 .023986817 .54319766-.008407593 .5608063-.025604248 .5932007-.025604248 .6399994-.025604248 .71720889 .026794434 .8392029 .13639832 .84161379 .13800049 .84280398 .14079285 .84280398 .14399719 .84280398 .14959717 .8380127 .15438843 .8324127 .15438843 .8296051 .15438843 .8272095 .15319824 .8256073 .15159607 .70840457 .047195436 .63279727-.0048065187 .5932007-.0048065187 .5720062-.0048065187 .56399539 .003189087 .56399539 .023986817 .56399539 .049194337 .5856018 .09199524 .6139984 .13999939 .64559939 .13999939 .67601016 .13879395 .70401 .13600159H.7052002C.7108002 .13600159 .7156067 .14079285 .7156067 .14639282 .7156067 .1519928 .7116089 .15640259 .7060089 .15679932 .6811981 .15919495 .6544037 .16040039 .6264038 .16079712 .6399994 .1828003 .6544037 .2052002 .668808 .2276001 .7315979 .32640077 .75120547 .3619995 .75120547 .38479615 .75120547 .40319825 .74121096 .41400147 .72320559 .41400147 .668808 .41400147 .5751953 .316391 .47320558 .20999146 .45399476 .19000244 .43440248 .16960144 .41479493 .14920044 .31399537 .13879395 .21398926 .11999512 .13240052 .10598755M.4467926 .15238953C.46080018 .16679383 .47439576 .18119812 .4880066 .19560242 .5904083 .30200196 .67759707 .39360047 .7220001 .39360047 .7276001 .39360047 .7304077 .39079286 .7304077 .38479615 .7304077 .36279298 .6932068 .3047943 .65119937 .23880005 .63479617 .2131958 .6175995 .1867981 .602005 .16079712 .5523987 .16040039 .5 .15719605 .4467926 .15238953Z"/>
<path id="font_1_6" d="M-.031600954 .0019989014C-.0040130617 .0019989014 .05519104 .04359436 .11920166 .099594119 .115997318 .08558655 .11439514 .07319641 .11439514 .063186649 .11439514 .02758789 .13240052 .0071868898 .1643982 .0071868898 .21398926 .0071868898 .2868042 .05079651 .38200379 .13639832 .3843994 .13800049 .38560487 .14079285 .38560487 .14399719 .38560487 .14959717 .38079835 .15438843 .37519837 .15438843 .372406 .15438843 .36999513 .15319824 .36839295 .15159607 .27719117 .070388797 .20759583 .027999878 .1643982 .027999878 .14439392 .027999878 .13519287 .03919983 .13519287 .063186649 .13519287 .07879639 .13919068 .099990848 .14678955 .12438965 .2480011 .21800232 .35079957 .33839417 .35079957 .38119508 .35079957 .3988037 .33999635 .40919496 .32240296 .40919496 .26319886 .40919496 .18519593 .28199769 .14360047 .17599488 .13800049 .19200135 .1255951 .2007904 .10719299 .2007904 .04319763 .2007904-.06161499 .09638977-.06161499 .032791139-.06161499 .012786865-.050811769 .0019989014-.031600954 .0019989014M.16159058 .16799927C.19999695 .2679901 .2723999 .38839723 .32240296 .38839723 .32839967 .38839723 .33000184 .38519288 .33000184 .38119508 .33000184 .3491974 .24839783 .25279237 .16159058 .16799927M-.031600954 .02279663C-.039215089 .02279663-.040802003 .024398804-.040802003 .032791139-.040802003 .08479309 .05479431 .17999268 .10719299 .17999268 .120788577 .17999268 .12719727 .17079163 .12599182 .15119934 .1255951 .14439392 .12680054 .14039612 .13040161 .13999939 .12998963 .13919068 .12998963 .13839722 .1295929 .1375885 .060791017 .07359314-.0056152346 .02279663-.031600954 .02279663Z"/>
<path id="font_1_16" d="M-.01600647-.032806398C.01399231-.032806398 .06639099 .009597778 .108795169 .058395387 .120788577 .045196535 .13800049 .037597658 .15879822 .037597658 .23680115 .037597658 .31399537 .117996219 .32919313 .13800049 .33039857 .13999939 .33119203 .14199829 .33119203 .14439392 .33119203 .1499939 .32640077 .15480042 .32080079 .15480042 .3171997 .15480042 .3143921 .15319824 .3123932 .15078736 .29800416 .13119507 .2276001 .058395387 .15879822 .058395387 .14279175 .058395387 .13040161 .06399536 .12199402 .074798587 .15280152 .1131897 .17559815 .15359497 .17559815 .17959595 .17559815 .1947937 .16519165 .20480347 .15039063 .20480347 .11878967 .20480347 .08959961 .1599884 .08959961 .11479187 .08959961 .10038757 .09199524 .08799744 .0967865 .077194217 .05758667 .030395508 .008392334-.012008667-.01600647-.012008667-.025604248-.012008667-.03201294-.0076141359-.03201294 .0027923585-.03201294 .03878784-.013214111 .08039856 .028396607 .13719177 .029586792 .13919068 .030395508 .14118958 .030395508 .14360047 .030395508 .14920044 .02558899 .1539917 .019989014 .1539917 .01638794 .1539917 .013198853 .15238953 .01159668 .14959717-.032409669 .08918762-.05281067 .04319763-.05281067 .0027923585-.05281067-.019607544-.0388031-.032806398-.01600647-.032806398M.11239624 .09638977C.111190799 .101989749 .11039734 .10800171 .11039734 .11479187 .11039734 .147995 .1315918 .18440247 .14959717 .18440247 .15238953 .18440247 .15519715 .1828003 .15519715 .17919922 .15519715 .16040039 .13679505 .12879944 .11239624 .09638977Z"/>
<path id="font_1_7" d="M.023986817 .011199951C.08200073 .011199951 .2012024 .07279968 .27679444 .13600159 .27919007 .13800049 .2803955 .14079285 .2803955 .14399719 .2803955 .14959717 .27560426 .15438843 .27000428 .15438843 .26719667 .15438843 .26480104 .15359497 .26319886 .1519928 .1967926 .0927887 .076797489 .03199768 .023986817 .03199768-.0020141602 .03199768-.01121521 .039993287-.01121521 .061187746-.01121521 .0743866-.00680542 .08918762 .00039672853 .10359192 .08639526 .095199588 .12998963 .147995 .12998963 .168396 .12998963 .18840027 .115997318 .2007904 .09359741 .2007904 .037994386 .2007904-.03201294 .12239075-.03201294 .061187746-.03201294 .02758789-.013214111 .011199951 .023986817 .011199951M.012390137 .12359619C.033996583 .15480042 .06678772 .17999268 .09359741 .17999268 .10479736 .17999268 .109191898 .1763916 .109191898 .168396 .109191898 .1559906 .07998657 .120391849 .012390137 .12359619Z"/>
<path id="font_1_11" d="M.023986817 .17079163C-.028411866 .09919739-.06361389 .038391115-.06361389 .016799927-.06361389 .007598877-.058013917 .00079345706-.048812868 .00079345706-.03640747 .00079345706-.014801025 .021987915 .02279663 .059188844 .109191898 .14518738 .15359497 .18119812 .17559815 .18119812 .17959595 .18119812 .18319702 .1803894 .18319702 .1743927 .18319702 .16079712 .17520142 .13919068 .16679383 .1151886 .1579895 .08959961 .14759827 .061187746 .14759827 .04119873 .14759827 .020385743 .15879822 .008392334 .17799378 .008392334 .2315979 .008392334 .30960084 .07519531 .377594 .13639832 .38000489 .13800049 .38119508 .14079285 .38119508 .14399719 .38119508 .14959717 .3764038 .15438843 .37080384 .15438843 .36799623 .15438843 .3656006 .15319824 .3639984 .15159607 .29599 .09118652 .2236023 .029190064 .17799378 .029190064 .17079163 .029190064 .168396 .031585695 .168396 .04119873 .168396 .05718994 .17720032 .08239746 .18640137 .10800171 .19519043 .13198853 .20399475 .15759278 .20399475 .1743927 .20399475 .1907959 .19519043 .2007904 .17999268 .2007904 .14639282 .2007904 .09919739 .16479492 .008392334 .07398987-.0012054443 .06478882-.00920105 .056793214-.016403199 .049987794-.030807496 .036392213-.033203126 .04359436-.026000977 .056793214-.010803223 .08439636 .013198853 .12120056 .042785646 .16159058 .05999756 .17880249 .08039856 .19760132 .08039856 .20999146 .08039856 .21559143 .07519531 .21879578 .069992069 .21879578 .06359863 .21879578 .05718994 .2151947 .05239868 .20959473 .044387819 .19999695 .035598756 .18759156 .023986817 .17079163Z"/>
<path id="font_1_14" d="M-.113204959-.11401367C-.10360718-.11401367-.0940094-.09921265-.08761597-.08441162-.08480835-.07800293-.08641052-.07321167-.0920105-.07121277-.047607423 .02519226 .04319763 .17118836 .11639404 .27560426 .18919373 .28399659 .26359559 .28799439 .32279969 .2823944H.32400514C.3296051 .2823944 .33439637 .28720094 .33439637 .2928009 .33439637 .29840089 .33039857 .3027954 .32479859 .30319215 .26919557 .3083954 .2007904 .30560304 .13279724 .29840089 .15679932 .32600404 .18359375 .35839845 .20039368 .37519837 .20239258 .37719728 .20359802 .38000489 .20359802 .38279725 .20359802 .38839723 .1987915 .39320375 .19319153 .39320375 .19039917 .39320375 .18798828 .3919983 .18598938 .39039613 .16479492 .3735962 .13439942 .3307953 .10519409 .29519654 .032791139 .2863922-.037200929 .2735901-.088409427 .2619934-.09321594 .26119996-.09680176 .25720216-.09680176 .2519989-.09680176 .24639893-.0920105 .2415924-.08641052 .2415924-.08560181 .2415924-.08480835 .2415924-.08401489 .24198914-.037200929 .25239564 .024398804 .26359559 .08879089 .2723999 .010787964 .15959168-.08201599 .007598877-.120407108-.08441162-.1268158-.099609378-.12721253-.11401367-.113204959-.11401367Z"/>
<path id="font_1_15" d="M.15559387 .0071868898C.2052002 .0071868898 .27799989 .05079651 .37319947 .13639832 .3755951 .13800049 .37680055 .14079285 .37680055 .14399719 .37680055 .14959717 .37199403 .15438843 .36639405 .15438843 .36360169 .15438843 .36120606 .15319824 .35960389 .15159607 .2684021 .070388797 .1987915 .027999878 .15559387 .027999878 .13439942 .027999878 .12638855 .035995485 .12638855 .056793214 .12638855 .090789798 .16079712 .14559937 .19000244 .1828003 .19158936 .18440247 .19239807 .1867981 .19239807 .18919373 .19239807 .1947937 .18759156 .19960022 .18199158 .19960022 .17880249 .19960022 .17559815 .19799805 .17359925 .19560242 .16799927 .18840027 .15679932 .17359925 .15640259 .17279053 .10119629 .09118652 .035186769 .033187868-.0012054443 .033187868-.008804321 .033187868-.012802124 .037994386-.013214111 .04798889-.014007568 .07319641 .009597778 .1171875 .051986696 .16918946 .053588869 .17118836 .054397584 .17359925 .054397584 .17599488 .054397584 .18159485 .049591066 .18640137 .04399109 .18640137 .040786745 .18640137 .037597658 .1847992 .035995485 .1823883-.010009766 .12599182-.035202028 .07839966-.03401184 .047195436-.033203126 .026397706-.020812989 .012390137-.0012054443 .012390137 .028396607 .012390137 .06838989 .038391115 .109191898 .08079529 .106796268 .07199097 .10559082 .06399536 .10559082 .056793214 .10559082 .024398804 .12319946 .0071868898 .15559387 .0071868898Z"/>
<path id="font_1_13" d="M-.041610719 .022399903C-.035614015 .019989014-.031204224 .021194458-.02760315 .026794434 .020385743 .09719849 .12838745 .17959595 .15640259 .17959595 .16040039 .17959595 .16200257 .17559815 .16400147 .15319824 .16600037 .13040161 .16918946 .095199588 .20599365 .095199588 .24639893 .095199588 .28919984 .12239075 .30519105 .13319397 .30799867 .13519287 .30999757 .13839722 .30999757 .14199829 .30999757 .14759827 .30519105 .15238953 .29959107 .15238953 .29719544 .15238953 .29519654 .15159607 .29359437 .15039063 .27760316 .1395874 .24040222 .115997318 .20599365 .115997318 .19158936 .115997318 .18759156 .12399292 .1847992 .15519715 .18199158 .1847992 .1763916 .20039368 .15640259 .20039368 .13040161 .20039368 .07319641 .16079712 .019592286 .108795169 .0063934328 .09559631 .0027923585 .09838867 .011993408 .11439514 .03239441 .15039063 .051193239 .17959595 .06239319 .19358826 .06399536 .19519043 .06478882 .19760132 .06478882 .19999695 .06478882 .20559693 .05999756 .21040344 .054397584 .21040344 .051193239 .21040344 .04838562 .20880127 .04638672 .20639038 .02279663 .17759705-.02960205 .08799744-.04840088 .036392213-.050811769 .030395508-.04840088 .02558899-.042404176 .02279663L-.041610719 .022399903Z"/>
<path id="font_1_19" d="M.05039978-.0048065187C.09880066-.0048065187 .2071991 .029190064 .27719117 .12239075 .2783966 .12438965 .27879334 .12638855 .27879334 .12838745 .27879334 .13398743 .27400209 .13879395 .2684021 .13879395 .26480104 .13879395 .26159669 .13679505 .25959779 .13398743 .19400025 .046798707 .09559631 .015991211 .05039978 .015991211 .012786865 .015991211-.0064086916 .031585695-.0064086916 .061187746-.0064086916 .06639099-.0056152346 .07159424-.00440979 .077194217 .07199097 .08959961 .13479615 .12919617 .13479615 .168396 .13479615 .18840027 .120788577 .2007904 .09838867 .2007904 .042785646 .2007904-.02720642 .12239075-.02720642 .061187746-.02720642 .019592286 .0019989014-.0048065187 .05039978-.0048065187M.003189087 .099594119C.021987915 .14039612 .065200809 .17999268 .09838867 .17999268 .10958862 .17999268 .11399841 .1763916 .11399841 .168396 .11399841 .15480042 .09039307 .115997318 .003189087 .099594119Z"/>
<path id="font_1_1" d=""/>
<path id="font_1_4" d="M.05479431-.083602908C.12638855-.083602908 .24879456 .042785646 .34680177 .16558838 .32759095 .1131897 .31480409 .061187746 .31480409 .021194458 .31480409-.01121521 .33239747-.028411866 .36479188-.028411866 .4163971-.028411866 .49360658 .04359436 .5563965 .10159302 .56959536 .11399841 .58239749 .1255951 .5940094 .13639832 .596405 .13800049 .5975952 .14079285 .5975952 .14399719 .5975952 .14959717 .59280398 .15438843 .587204 .15438843 .58439639 .15438843 .58200076 .15319824 .58039858 .15159607 .56840518 .14118958 .555603 .12919617 .5424042 .11679077 .479599 .058792116 .4084015-.0076141359 .36479188-.0076141359 .3435974-.0076141359 .3356018 .00039672853 .3356018 .021194458 .3356018 .07559204 .36039735 .1519928 .38960267 .2211914 .4532013 .30599977 .49839784 .37879945 .49839784 .3919983 .49839784 .4024048 .49160768 .40960694 .48120118 .4084015 .46400453 .4064026 .41319276 .32479859 .372406 .23078919 .27400209 .099594119 .13079834-.062805179 .05479431-.062805179 .031188965-.062805179 .02079773-.050811769 .02079773-.022003174 .02079773 .10958862 .1967926 .35040284 .24919129 .41279603 .25079347 .41479493 .25160218 .4172058 .25160218 .41960145 .25160218 .42520143 .24679566 .42999269 .24119568 .42999269 .23799134 .42999269 .23519898 .42840577 .23320008 .42640687 .1803894 .36320497 0 .11639404 0-.022003174 0-.06161499 .019195557-.083602908 .05479431-.083602908Z"/>
<path id="font_1_9" d="M.15919495 .37039186C.06838989 .26679994-.05961609 .047195436-.05961609-.017608643-.05961609-.045211793-.04360962-.06161499-.017211914-.06161499 .067596439-.06161499 .25880433 .10839844 .2843933 .13719177 .2863922 .13879395 .28720094 .14118958 .28720094 .14399719 .28720094 .14959717 .2823944 .15438843 .27679444 .15438843 .2735901 .15438843 .27079774 .15319824 .26919557 .15078736 .2440033 .122787479 .05960083-.040802003-.017211914-.040802003-.03201294-.040802003-.0388031-.033615114-.0388031-.017608643-.0388031 .04159546 .08718872 .2579956 .1763916 .35839845 .19560242 .3735962 .21839905 .38879396 .21839905 .40119935 .21839905 .40679933 .2131958 .41160584 .2071991 .41160584 .20159912 .41160584 .19560242 .40879823 .19039917 .4039917 .18119812 .39520265 .17079163 .3843994 .15919495 .37039186Z"/>
<path id="font_1_8" d="M.08959961 .2440033C.0927887 .2440033 .09599304 .24559021 .09799194 .2480011 .101989749 .2531891 .10839844 .26119996 .1131897 .26719667 .11479187 .26919557 .115600589 .2715912 .115600589 .27400209 .115600589 .27960206 .11079407 .2843933 .10519409 .2843933 .101989749 .2843933 .09880066 .28279115 .09719849 .2803955 .0927887 .2735901 .08558655 .2659912 .081588748 .26080323 .08039856 .25920106 .079193118 .25679017 .079193118 .25439454 .079193118 .24879456 .083999637 .2440033 .08959961 .2440033M.023986817 .0071868898C.07359314 .0071868898 .14639282 .05079651 .2415924 .13639832 .2440033 .13800049 .24519348 .14079285 .24519348 .14399719 .24519348 .14959717 .24040222 .15438843 .23480225 .15438843 .23199463 .15438843 .229599 .15319824 .22799683 .15159607 .13679505 .070388797 .06719971 .027999878 .023986817 .027999878 .0027923585 .027999878-.005203247 .035995485-.005203247 .056793214-.005203247 .083999637 .024398804 .14399719 .058395387 .1867981 .05999756 .18840027 .060791017 .1907959 .060791017 .19319153 .060791017 .1987915 .055999757 .20359802 .05039978 .20359802 .047195436 .20359802 .04399109 .20199585 .042388917 .19960022 .01638794 .16719055-.026000977 .0967865-.026000977 .056793214-.026000977 .024398804-.008407593 .0071868898 .023986817 .0071868898Z"/>
<path id="font_1_10" d="M-.053604127 .0019989014C-.04321289 .0019989014-.022415162 .024398804 .0087890629 .05519104 .09719849 .14360047 .14118958 .17999268 .15559387 .17999268 .15919495 .17999268 .15919495 .17799378 .15919495 .17599488 .15919495 .16719055 .1519928 .14720154 .13079834 .099990848 .11920166 .07359314 .10719299 .046798707 .10719299 .03479004 .10719299 .026397706 .11239624 .019592286 .120788577 .019592286 .13439942 .019592286 .15359497 .03479004 .20559693 .08358765 .25759889 .13240052 .2783966 .14959717 .28599549 .14959717 .28919984 .14959717 .28959657 .14759827 .28959657 .14518738 .28959657 .13198853 .2803955 .10800171 .27200318 .08479309 .26480104 .06599426 .25759889 .047195436 .25759889 .03718567 .25759889 .017990113 .26759339 .008392334 .28720094 .008392334 .34080506 .008392334 .41879273 .07519531 .48680116 .13639832 .48919679 .13800049 .49040223 .14079285 .49040223 .14399719 .49040223 .14959717 .4855957 .15438843 .47999574 .15438843 .47720338 .15438843 .47480775 .15319824 .47320558 .15159607 .40519715 .09118652 .3327942 .029190064 .28720094 .029190064 .27919007 .029190064 .2783966 .02999878 .2783966 .03718567 .2783966 .04159546 .28120423 .051193239 .29119874 .07759094 .30000306 .10079956 .3103943 .12838745 .3103943 .14518738 .3103943 .16079712 .30239869 .1703949 .28759767 .1703949 .2715912 .1703949 .24879456 .15238953 .19119263 .09880066 .17199707 .08039856 .15719605 .06719971 .14639282 .057998659 .13639832 .049591066 .13319397 .05319214 .13800049 .06439209 .14118958 .07159424 .14479065 .08039856 .1499939 .09159851 .16400147 .122787479 .17999268 .15919495 .17999268 .17759705 .17999268 .19119263 .17199707 .2007904 .15879822 .2007904 .13198853 .2007904 .08760071 .16358948-.006011963 .069992069-.018005372 .057998659-.021606446 .063186649-.015213013 .07359314 .009994507 .115997318 .04559326 .17079163 .069992069 .20159912 .07159424 .2032013 .072387699 .20559693 .072387699 .20799256 .072387699 .21359253 .067596439 .21839905 .06199646 .21839905 .058792116 .21839905 .05558777 .21679688 .054000856 .21440125 .005996704 .15438843-.06561279 .035995485-.06561279 .014785767-.06561279 .007598877-.060806276 .0019989014-.053604127 .0019989014Z"/>
<path id="font_1_18" d="M.1783905-.0048065187C.21759033-.0048065187 .32199098 .029190064 .3840027 .12239075 .38479615 .12438965 .38560487 .12638855 .38560487 .12838745 .38560487 .13398743 .38079835 .13879395 .37519837 .13879395 .3715973 .13879395 .36839295 .13679505 .36639405 .13398743 .3087921 .046798707 .21440125 .015991211 .1783905 .015991211 .1459961 .015991211 .13319397 .02758789 .13319397 .056793214 .13319397 .0743866 .13800049 .09838867 .1459961 .1255951 .24679566 .2191925 .34880067 .33839417 .34880067 .38119508 .34880067 .3988037 .33799745 .40919496 .32040406 .40919496 .26159669 .40919496 .18359375 .28279115 .14199829 .17520142 .13639832 .19158936 .12399292 .2007904 .10519409 .2007904 .04119873 .2007904-.06361389 .09638977-.06361389 .032791139-.06361389 .012786865-.05281067 .0019989014-.033615114 .0019989014-.0072021486 .0019989014 .046798707 .03919983 .106796268 .090789798 .11279297 .09559631 .11679077 .09359741 .1151886 .085998538 .1131897 .07519531 .11239624 .065200809 .11239624 .056793214 .11239624 .015594482 .13439942-.0048065187 .1783905-.0048065187M.16119385 .16918946C.19960022 .27079774 .27079774 .38839723 .32040406 .38839723 .3267975 .38839723 .32800294 .38679505 .32800294 .38119508 .32800294 .3491974 .24719239 .25360108 .16119385 .16918946M-.033615114 .02279663C-.04121399 .02279663-.042800905 .024398804-.042800905 .032791139-.042800905 .08479309 .05279541 .17999268 .10519409 .17999268 .11878967 .17999268 .12519837 .17079163 .12399292 .15119934 .12359619 .14439392 .12519837 .14039612 .12919617 .13999939V.13879395C.05960083 .0743866-.0076141359 .02279663-.033615114 .02279663Z"/>
<path id="font_1_3" d="M.43559266 .44360353C.30200196 .44360353 .07279968 .3132019 .07279968 .19839478 .07279968 .117996219 .15438843 .095199588 .22319031 .065597537 .2823944 .039596559 .331604 .016799927 .331604-.026809693 .331604-.06201172 .29599-.08560181 .23999024-.08560181 .16999817-.08560181 .08879089-.047210695 .047592164 .014785767 .04559326 .017593384 .042388917 .019592286 .03878784 .019592286 .033187868 .019592286 .028396607 .014785767 .028396607 .009185791 .028396607 .0071868898 .029190064 .0051879885 .030395508 .003189087 .07559204-.06480408 .16319275-.106414798 .23999024-.106414798 .3072052-.106414798 .35240174-.07481384 .35240174-.026809693 .35240174 .029586792 .29119874 .058792116 .23120117 .08479309 .16159058 .1151886 .09359741 .13398743 .09359741 .19839478 .09359741 .290802 .2947998 .4228058 .43559266 .4228058 .49440003 .4228058 .52679446 .39920045 .52679446 .3580017 .52679446 .3083954 .48919679 .2480011 .42919923 .1967926 .40759278 .18359375 .39439393 .1763916 .38319398 .16918946 .377594 .16558838 .3735962 .16119385 .37199403 .15559387 .37039186 .14959717 .3744049 .14239502 .37919618 .14079285 .39120484 .13679505 .41360475 .15840149 .43559266 .17520142 .5059967 .22920227 .5476074 .29959107 .5476074 .3580017 .5476074 .41160584 .5056 .44360353 .43559266 .44360353Z"/>
<path id="font_1_5" d="M.032791139-.008407593C.09359741-.008407593 .20799256 .07519531 .27760316 .13600159 .27999879 .13800049 .28120423 .14079285 .28120423 .14399719 .28120423 .14959717 .2763977 .15438843 .27079774 .15438843 .2679901 .15438843 .26559449 .15359497 .2639923 .1519928 .16999817 .06919861 .07598877 .012390137 .032791139 .012390137 .0027923585 .012390137-.010406494 .027191163-.010406494 .061187746-.010406494 .111190799 .05039978 .17999268 .09439087 .17999268 .10559082 .17999268 .11000061 .1763916 .11000061 .168396 .11000061 .15480042 .10038757 .13839722 .088394168 .13040161 .08558655 .12838745 .08358765 .12519837 .08358765 .12159729 .08358765 .115997318 .088394168 .111190799 .09399414 .111190799 .09599304 .111190799 .09799194 .11199951 .099594119 .11279297 .11759949 .124801639 .13079834 .147995 .13079834 .168396 .13079834 .18840027 .11679077 .2007904 .09439087 .2007904 .03878784 .2007904-.031204224 .12239075-.031204224 .061187746-.031204224 .015991211-.00920105-.008407593 .032791139-.008407593Z"/>
<path id="font_1_12" d="M-.14640808-.17080689C-.14241028-.17080689-.1388092-.16841126-.13720703-.16520691-.021606446 .05479431 .12120056 .19319153 .18159485 .19319153 .19200135 .19319153 .19639588 .188797 .19639588 .17678833 .19639588 .1559906 .1847992 .12919617 .16760254 .10398865 .09320068 .08679199 .02519226 .067993167 .02519226 .024795533 .02519226 .0079956059 .03919983-.0032043458 .057998659-.0032043458 .095199588-.0032043458 .1459961 .037597658 .17999268 .08518982 .18359375 .08639526 .18719483 .08718872 .19119263 .08799744 .25920106 .10319519 .33599855 .120788577 .3804016 .15480042 .38319398 .15679932 .38479615 .15959168 .38479615 .16319275 .38479615 .16879273 .38000489 .17359925 .3744049 .17359925 .37199403 .17359925 .3695984 .17279053 .36799623 .17160034 .3287964 .14160156 .26119996 .12519837 .19599915 .11039734 .209198 .1335907 .2171936 .15679932 .2171936 .17678833 .2171936 .19999695 .20399475 .21398926 .18159485 .21398926 .13600159 .21398926 .06439209 .15679932-.015213013 .05479431-.026000977 .040786745-.02960205 .035995485-.0072021486 .07798767 .0071868898 .10398865 .019195557 .1255951 .027191163 .13999939 .027999878 .14160156 .028396607 .14318848 .028396607 .14518738 .028396607 .15078736 .023590088 .15559387 .017990113 .15559387 .01399231 .15559387 .010391235 .15319824 .0087890629 .1499939 .00079345706 .1355896-.01121521 .113601688-.02520752 .08799744-.07321167 .00079345706-.14480591-.12960816-.15600586-.15641785-.15641785-.15760803-.15681458-.15881348-.15681458-.16041565-.15681458-.16601563-.15200806-.17080689-.14640808-.17080689M.057998659 .017593384C.049591066 .017593384 .04598999 .020385743 .04598999 .024795533 .04598999 .04399109 .070388797 .057998659 .14720154 .07759094 .11878967 .04399109 .08319092 .017593384 .057998659 .017593384Z"/>
<path id="font_1_17" d="M.019592286-.05441284C.063186649-.05441284 .16719055-.016403199 .22879029 .07279968 .22999573 .0743866 .23078919 .07640076 .23078919 .07879639 .23078919 .08439636 .22599793 .08918762 .22039795 .08918762 .21679688 .08918762 .21359253 .08718872 .21159363 .08439636 .1539917 .0011901856 .059188844-.033615114 .019592286-.033615114-.008804321-.033615114-.022003174-.021209717-.021606446 .0051879885-.021606446 .04798889 .055999757 .18319702 .124801639 .28399659 .19000244 .28799439 .25920106 .2883911 .3231964 .2823944 .32359315 .2823944 .32400514 .2823944 .32440187 .2823944 .33000184 .2823944 .3347931 .28720094 .3347931 .2928009 .3347931 .29840089 .3307953 .3027954 .3251953 .30319215 .26519776 .3087921 .2007904 .3087921 .1395874 .30560304 .16679383 .34399415 .19119263 .37519837 .20799256 .39120484 .20999146 .39320375 .2111969 .3959961 .2111969 .3988037 .2111969 .4044037 .20639038 .40919496 .2007904 .40919496 .19799805 .40919496 .19560242 .40800477 .19358826 .4064026 .1743927 .3880005 .14518738 .34999085 .113601688 .30439759 .05960083 .3007965 .0087890629 .29559327-.033615114 .29039-.0388031 .28959657-.042800905 .28520204-.042800905 .27999879-.042800905 .2743988-.038009645 .2695923-.032409669 .2695923-.03201294 .2695923-.031600954 .2695923-.031204224 .2695923 .006790161 .2743988 .051193239 .27919007 .09880066 .2823944 .030395508 .17999268-.042404176 .049987794-.042404176 .0051879885-.042800905-.032806398-.020401001-.05441284 .019592286-.05441284Z"/>
<path id="font_2_3" d="M.871994 0 .8699951 .7001953H.7369995L.47898866 .26506043 .21699524 .7001953H.08299255V0H.23498535V.4111023L.43998719 .074020389H.5130005L.71899417 .42010499 .7200012 0H.871994Z"/>
<path id="font_2_8" d="M.32798768-.0078125C.49899293-.0078125 .6230011 .107177738 .6230011 .26904298 .6230011 .43089295 .49899293 .54589846 .32798768 .54589846 .15699768 .54589846 .03199768 .43089295 .03199768 .26904298 .03199768 .107177738 .15699768-.0078125 .32798768-.0078125M.32798768 .12017822C.25 .12017822 .18998719 .1761322 .18998719 .26904298 .18998719 .36195375 .25 .41789247 .32798768 .41789247 .4059906 .41789247 .46499635 .36195375 .46499635 .26904298 .46499635 .1761322 .4059906 .12017822 .32798768 .12017822Z"/>
<path id="font_2_7" d="M.39898683 .54589846C.32598878 .54589846 .2630005 .5208893 .22099304 .47488404V.53808596H.07199097V0H.22799683V.266037C.22799683 .36489869 .28199769 .41088868 .35699464 .41088868 .42599488 .41088868 .46598817 .3708954 .46598817 .2839203V0H.621994V.30792237C.621994 .4718933 .526001 .54589846 .39898683 .54589846Z"/>
<path id="font_2_11" d="M.3769989 .13618469C.3600006 .123184207 .33699037 .11618042 .31399537 .11618042 .27198792 .11618042 .24699402 .14118958 .24699402 .18719483V.40625H.3809967V.5262451H.24699402V.6572418H.09098816V.5262451H.0079956059V.40625H.09098816V.18519593C.09098816 .057174684 .16499329-.0078125 .2919922-.0078125 .33999635-.0078125 .3869934 .0031738282 .4189911 .026184082L.3769989 .13618469Z"/>
<path id="font_2_10" d="M.25299073-.0078125C.4139862-.0078125 .5069885 .063186649 .5069885 .16311646 .5069885 .37496949 .18199158 .28605653 .18199158 .37797547 .18199158 .40592958 .21199036 .42788697 .28199769 .42788697 .33099366 .42788697 .38398744 .4179077 .43699647 .3879547L.4889984 .4988861C.43798829 .5288849 .35598756 .54589846 .28199769 .54589846 .125 .54589846 .032989503 .4738922 .032989503 .37197877 .032989503 .15711975 .35798646 .24705506 .35798646 .15911865 .35798646 .12915039 .33099366 .110183719 .25898744 .110183719 .19299317 .110183719 .11999512 .13114929 .07199097 .16210938L.019989014 .050186159C.069992069 .017181397 .1619873-.0078125 .25299073-.0078125Z"/>
<path id="font_2_5" d="M.598999 .26739503C.598999 .43989564 .47698976 .54589846 .31900025 .54589846 .15499878 .54589846 .03199768 .42988587 .03199768 .26939393 .03199768 .109176639 .15299988-.0078125 .33898927-.0078125 .43598939-.0078125 .5109863 .02218628 .5609894 .07917786L.47799684 .169281C.44099427 .13421631 .3999939 .1171875 .34298707 .1171875 .26098634 .1171875 .20399475 .15826416 .18899536 .22540283H.59599307C.5970001 .23840332 .598999 .2554016 .598999 .26739503M.31999208 .42788697C.3899994 .42788697 .44099427 .38409425 .45199586 .31640626H.18699646C.19799805 .38508607 .24899292 .42788697 .31999208 .42788697Z"/>
<path id="font_2_9" d="M.22099304 .46707154V.53808596H.07199097V0H.22799683V.25402833C.22799683 .35690309 .2849884 .4038849 .37098695 .4038849 .3829956 .4038849 .3929901 .40289308 .4059906 .401886V.54589846C.32299806 .54608157 .25898744 .5190735 .22099304 .46707154Z"/>
<path id="font_2_4" d="M.2889862 .54589846C.20298767 .54589846 .115997318 .5228882 .056991579 .480896L.11299133 .37213136C.1519928 .40298463 .21099854 .42189027 .2679901 .42189027 .35198976 .42189027 .3919983 .3830719 .3919983 .31640626H.2679901C.10398865 .31640626 .036987306 .25039674 .036987306 .15527344 .036987306 .062179567 .11199951-.0078125 .23799134-.0078125 .31698609-.0078125 .37298585 .018173218 .4019928 .06718445V0H.5479889V.30740357C.5479889 .4698944 .45298768 .54589846 .2889862 .54589846M.2769928 .09718323C.22200012 .09718323 .18899536 .12322998 .18899536 .16229248 .18899536 .198349 .21199036 .22540283 .2849884 .22540283H.3919983V.17030335C.37399293 .12121582 .32899476 .09718323 .2769928 .09718323Z"/>
<path id="font_2_2" d="M.6119995 .5701904V.7001953H.08299255V0H.24499512V.2548828H.56900027V.38487245H.24499512V.5701904H.6119995Z"/>
<path id="font_2_1" d="M.41799928-.01171875C.5399933-.01171875 .6409912 .03227234 .70700076 .11328125L.6029968 .20921326C.55599978 .1542511 .49699403 .12626648 .4269867 .12626648 .29599 .12626648 .20298767 .21820069 .20298767 .35009767 .20298767 .48197938 .29599 .5739136 .4269867 .5739136 .49699403 .5739136 .55599978 .54592898 .6029968 .49197389L.70700076 .5878906C.6409912 .6679077 .5399933 .71191409 .4189911 .71191409 .20098877 .71191409 .038986207 .5609131 .038986207 .35009767 .038986207 .13926697 .20098877-.01171875 .41799928-.01171875Z"/>
<path id="font_2_6" d="M.07199097 0H.22799683V.7421875H.07199097V0Z"/>
</defs>
<g inkscape:groupmode="layer" inkscape:label="black bg">
</g>
<g inkscape:groupmode="layer" inkscape:label="edit board">
<use data-text="A" xlink:href="#font_1_2" transform="matrix(48.5805,0,0,-48.5805,31.332,361.05183)"/>
<use data-text="d" xlink:href="#font_1_6" transform="matrix(48.5805,0,0,-48.5805,70.973697,361.05183)"/>
<use data-text="v" xlink:href="#font_1_16" transform="matrix(48.5805,0,0,-48.5805,88.41409,361.05183)"/>
<use data-text="e" xlink:href="#font_1_7" transform="matrix(48.5805,0,0,-48.5805,103.23115,361.05183)"/>
<use data-text="n" xlink:href="#font_1_11" transform="matrix(48.5805,0,0,-48.5805,115.667758,361.05183)"/>
<use data-text="t" xlink:href="#font_1_14" transform="matrix(48.5805,0,0,-48.5805,132.91384,361.05183)"/>
<use data-text="u" xlink:href="#font_1_15" transform="matrix(48.5805,0,0,-48.5805,140.68672,361.05183)"/>
<use data-text="r" xlink:href="#font_1_13" transform="matrix(48.5805,0,0,-48.5805,157.6899,361.05183)"/>
<use data-text="e" xlink:href="#font_1_19" transform="matrix(48.5805,0,0,-48.5805,171.48676,361.05183)"/>
<use data-text=" " xlink:href="#font_1_1" transform="matrix(48.5805,0,0,-48.5805,185.04071,361.05183)"/>
<use data-text="U" xlink:href="#font_1_4" transform="matrix(48.5805,0,0,-48.5805,196.70003,361.05183)"/>
<use data-text="n" xlink:href="#font_1_11" transform="matrix(48.5805,0,0,-48.5805,224.24518,361.05183)"/>
<use data-text="l" xlink:href="#font_1_9" transform="matrix(48.5805,0,0,-48.5805,241.49126,361.05183)"/>
<use data-text="i" xlink:href="#font_1_8" transform="matrix(48.5805,0,0,-48.5805,254.07361,361.05183)"/>
<use data-text="m" xlink:href="#font_1_10" transform="matrix(48.5805,0,0,-48.5805,264.66416,361.05183)"/>
<use data-text="i" xlink:href="#font_1_8" transform="matrix(48.5805,0,0,-48.5805,287.2055,361.05183)"/>
<use data-text="t" xlink:href="#font_1_14" transform="matrix(48.5805,0,0,-48.5805,297.79606,361.05183)"/>
<use data-text="e" xlink:href="#font_1_7" transform="matrix(48.5805,0,0,-48.5805,305.56895,361.05183)"/>
<use data-text="d" xlink:href="#font_1_18" transform="matrix(48.5805,0,0,-48.5805,318.00556,361.05183)"/>
<use data-text=" " xlink:href="#font_1_1" transform="matrix(48.5805,0,0,-48.5805,336.22325,361.05183)"/>
<use data-text="S" xlink:href="#font_1_3" transform="matrix(48.5805,0,0,-48.5805,347.88258,361.05183)"/>
<use data-text="c" xlink:href="#font_1_5" transform="matrix(48.5805,0,0,-48.5805,374.89335,361.05183)"/>
<use data-text="r" xlink:href="#font_1_13" transform="matrix(48.5805,0,0,-48.5805,387.28138,361.05183)"/>
<use data-text="i" xlink:href="#font_1_8" transform="matrix(48.5805,0,0,-48.5805,401.07826,361.05183)"/>
<use data-text="p" xlink:href="#font_1_12" transform="matrix(48.5805,0,0,-48.5805,411.6688,361.05183)"/>
<use data-text="t" xlink:href="#font_1_17" transform="matrix(48.5805,0,0,-48.5805,428.13758,361.05183)"/>
<use data-text="M" xlink:href="#font_2_3" transform="matrix(48.5805,0,0,-48.5805,31.332,425.17808)"/>
<use data-text="o" xlink:href="#font_2_8" transform="matrix(48.5805,0,0,-48.5805,77.72638,425.17808)"/>
<use data-text="n" xlink:href="#font_2_7" transform="matrix(48.5805,0,0,-48.5805,109.54661,425.17808)"/>
<use data-text="t" xlink:href="#font_2_11" transform="matrix(48.5805,0,0,-48.5805,143.11574,425.17808)"/>
<use data-text="s" xlink:href="#font_2_10" transform="matrix(48.5805,0,0,-48.5805,164.24826,425.17808)"/>
<use data-text="e" xlink:href="#font_2_5" transform="matrix(48.5805,0,0,-48.5805,190.04451,425.17808)"/>
<use data-text="r" xlink:href="#font_2_9" transform="matrix(48.5805,0,0,-48.5805,220.6988,425.17808)"/>
<use data-text="r" xlink:href="#font_2_9" transform="matrix(48.5805,0,0,-48.5805,241.44269,425.17808)"/>
<use data-text="a" xlink:href="#font_2_4" transform="matrix(48.5805,0,0,-48.5805,262.04084,425.17808)"/>
<use data-text="t" xlink:href="#font_2_11" transform="matrix(48.5805,0,0,-48.5805,292.015,425.17808)"/>
<use data-text="F" xlink:href="#font_2_2" transform="matrix(24.7411,0,0,-24.7411,31.3325,311.2505)"/>
<use data-text="o" xlink:href="#font_2_8" transform="matrix(24.7411,0,0,-24.7411,46.795694,311.2505)"/>
<use data-text="n" xlink:href="#font_2_7" transform="matrix(24.7411,0,0,-24.7411,63.001115,311.2505)"/>
<use data-text="t" xlink:href="#font_2_11" transform="matrix(24.7411,0,0,-24.7411,80.09721,311.2505)"/>
<use data-text="s" xlink:href="#font_2_10" transform="matrix(24.7411,0,0,-24.7411,90.8596,311.2505)"/>
<use data-text="C" xlink:href="#font_2_1" transform="matrix(24.7411,0,0,-24.7411,30.887162,85.68591)"/>
<use data-text="o" xlink:href="#font_2_8" transform="matrix(24.7411,0,0,-24.7411,48.552309,85.68591)"/>
<use data-text="l" xlink:href="#font_2_6" transform="matrix(24.7411,0,0,-24.7411,64.75773,85.68591)"/>
<use data-text="o" xlink:href="#font_2_8" transform="matrix(24.7411,0,0,-24.7411,72.2048,85.68591)"/>
<use data-text="r" xlink:href="#font_2_9" transform="matrix(24.7411,0,0,-24.7411,88.410228,85.68591)"/>
<use data-text="s" xlink:href="#font_2_10" transform="matrix(24.7411,0,0,-24.7411,99.024158,85.68591)"/>
<path transform="matrix(1,0,0,-1,0,500)" d="M156.507 269.417H30.876008V395.04798H156.507Z"/>
<path transform="matrix(1,0,0,-1,0,500)" d="M296.65 269.417H171.019V395.04798H296.65Z" fill="#016073"/>
<path transform="matrix(1,0,0,-1,0,500)" d="M442.311 269.417H316.68V395.04798H442.311Z" fill="#e59a02"/>
</g>
<g inkscape:groupmode="layer" inkscape:label="fonts &amp; colors">
</g>
<g inkscape:groupmode="layer" inkscape:label="white">
</g>
<g inkscape:groupmode="layer" inkscape:label="black">
</g>
<g inkscape:groupmode="layer" inkscape:label="full color">
</g>
</svg>
