<svg xmlns="http://www.w3.org/2000/svg" xmlns:xlink="http://www.w3.org/1999/xlink" xmlns:inkscape="http://www.inkscape.org/namespaces/inkscape" version="1.1" width="500" height="500" viewBox="0 0 500 500">
<defs>
<clipPath id="clip_1">
<path transform="matrix(1,0,0,-1,0,500)" d="M0 500H500V0H0Z"/>
</clipPath>
</defs>
<g inkscape:groupmode="layer" inkscape:label="black bg">
</g>
<g inkscape:groupmode="layer" inkscape:label="edit board">
</g>
<g inkscape:groupmode="layer" inkscape:label="fonts &amp; colors">
</g>
<g inkscape:groupmode="layer" inkscape:label="white">
</g>
<g inkscape:groupmode="layer" inkscape:label="black">
</g>
<g inkscape:groupmode="layer" inkscape:label="full color">
<g clip-path="url(#clip_1)">
<path transform="matrix(1,0,0,-1,80.1669,197.86499)" d="M0 0C2.851 6.831 9.739 18.115 15.53 26.49 10.749 25.837 6.176 25.005 2.702 24.233 2.642 24.203 2.582 24.203 2.524 24.203 2.108 24.203 1.752 24.56 1.752 24.975 1.752 25.361 2.019 25.657 2.375 25.717 6.176 26.578 11.373 27.528 16.747 28.182 18.916 30.824 21.173 34.002 22.746 35.251 22.896 35.369 23.073 35.458 23.281 35.458 23.696 35.458 24.053 35.101 24.053 34.686 24.053 34.478 23.964 34.269 23.815 34.121 22.568 32.874 20.579 30.469 18.797 28.419 23.846 28.955 28.922 29.162 33.051 28.777 33.467 28.745 33.763 28.419 33.763 28.005 33.763 27.588 33.407 27.232 32.991 27.232H32.902C28.508 27.648 22.984 27.35 17.579 26.727 12.145 18.976 5.404 8.138 2.108 .981 2.524 .832 2.642 .476 2.435 0 1.959-1.098 1.247-2.197 .535-2.197-.505-2.197-.476-1.128 0 0"/>
<path transform="matrix(1,0,0,-1,97.1718,191.24219)" d="M0 0C-.207-.445-.118-.742 .387-.118 .565 .089 1.367 1.068 1.782 1.604 3 3.089 4.337 4.811 5.732 6.444 9.978 11.374 12.74 13.63 14.699 13.63 16.125 13.63 16.837 12.62 16.837 10.958 16.837 9.801 16.51 8.314 16.214 6.979 15.947 5.731 15.709 4.633 15.709 3.861 15.709 2.317 16.304 1.722 17.581 1.722 20.401 1.722 26.49 6.414 31.537 10.898 31.657 11.018 31.834 11.107 32.042 11.107 32.458 11.107 32.814 10.751 32.814 10.335 32.814 10.096 32.725 9.889 32.547 9.77 25.568 3.534 20.223 .178 17.581 .178 15.472 .178 14.165 1.455 14.165 3.861 14.165 4.811 14.432 6.089 14.73 7.306 14.997 8.641 15.293 9.948 15.293 10.958 15.293 11.879 15.115 12.086 14.699 12.086 13.335 12.086 10.78 9.918 6.919 5.434 5.554 3.83 4.187 2.139 3 .623 .654-2.286-.83-4.306-1.752-4.306-2.345-4.306-2.731-3.83-2.731-3.207-2.731 .327 9.355 19.154 16.364 27.142 17.224 28.181 17.997 28.984 18.68 29.637 19.065 29.992 19.481 30.202 19.866 30.202 20.342 30.202 20.759 29.845 20.759 29.429 20.759 28.508 19.125 27.38 17.699 26.251 11.88 19.777 2.525 5.434 0 0"/>
<path transform="matrix(1,0,0,-1,136.5257,179.09619)" d="M0 0C0 .594-.327 .862-1.157 .862-3.623 .862-6.829-2.079-8.226-5.107-1.752-3.89 0-1.01 0 0M-10.482-7.958C-10.482-3.416-5.286 2.405-1.157 2.405 .505 2.405 1.545 1.485 1.545 0 1.545-2.91-3.118-5.851-8.791-6.771-8.879-7.186-8.938-7.573-8.938-7.958-8.938-10.156-7.513-11.314-4.722-11.314-1.367-11.314 5.939-9.028 10.809-2.555 10.958-2.345 11.196-2.199 11.463-2.199 11.878-2.199 12.235-2.555 12.235-2.97 12.235-3.117 12.205-3.267 12.115-3.416 6.919-10.335-1.128-12.858-4.722-12.858-8.314-12.858-10.482-11.047-10.482-7.958"/>
<path transform="matrix(1,0,0,-1,84.3286,215.9191)" d="M0 0V-17.426H22.94V-21.481H0V-40.303H-4.689V4.056H25.728V0Z"/>
<path transform="matrix(1,0,0,-1,143.769,240.56949)" d="M0 0-10.646 23.827-21.292 0ZM1.711-3.802H-23.003L-28.326-15.652H-33.206L-12.927 28.706H-8.301L11.977-15.652H7.034Z"/>
<path transform="matrix(1,0,0,-1,158.8511,250.8351)" d="M0 0 1.837 3.611C5.006 .507 10.646-1.774 16.476-1.774 24.777-1.774 28.39 1.711 28.39 6.083 28.39 18.25 1.077 10.772 1.077 27.186 1.077 33.713 6.147 39.353 17.427 39.353 22.433 39.353 27.629 37.895 31.178 35.424L29.594 31.685C25.792 34.156 21.355 35.36 17.427 35.36 9.315 35.36 5.703 31.748 5.703 27.312 5.703 15.146 33.016 22.496 33.016 6.337 33.016-.19 27.819-5.767 16.476-5.767 9.822-5.767 3.295-3.422 0 0"/>
<path transform="matrix(1,0,0,-1,239.1396,211.8634)" d="M0 0V-44.358H-4.626V-23.89H-32.382V-44.358H-37.071V0H-32.382V-19.771H-4.626V0Z"/>
<path transform="matrix(1,0,0,-1,0,500)" d="M253.587 288.137H258.276V243.77899H253.587Z"/>
<path transform="matrix(1,0,0,-1,310.6826,234.04212)" d="M0 0C0 10.582-7.921 18.377-18.567 18.377-29.277 18.377-37.261 10.582-37.261 0-37.261-10.583-29.277-18.378-18.567-18.378-7.921-18.378 0-10.583 0 0M-41.887 0C-41.887 12.927-32.002 22.56-18.567 22.56-5.26 22.56 4.689 12.99 4.689 0 4.689-12.991-5.26-22.56-18.567-22.56-32.002-22.56-41.887-12.928-41.887 0"/>
<path transform="matrix(1,0,0,-1,362.9624,211.8634)" d="M0 0V-44.358H-3.866L-32.382-8.364V-44.358H-37.071V0H-33.206L-4.626-35.993V0Z"/>
<path transform="matrix(1,0,0,-1,124.1208,299.3589)" d="M0 0C0 9.91-6.64 15.558-19.324 15.558H-36.172V-15.558H-19.324C-6.64-15.558 0-9.91 0 0M9.909 0C9.909-15.063-.991-24.18-19.027-24.18H-36.172V-45.189H-46.082V24.18H-19.027C-.991 24.18 9.909 15.063 9.909 0"/>
<path transform="matrix(1,0,0,-1,185.8558,319.2776)" d="M0 0-14.964 33.991-29.928 0ZM3.468-7.928H-33.396L-41.026-25.27H-51.234L-19.82 44.099H-10.009L21.504-25.27H11.099Z"/>
<path transform="matrix(1,0,0,-1,332.9467,283.8005)" d="M0 0H-23.784V8.622H33.595V0H9.811V-60.748H0Z"/>
<path transform="matrix(1,0,0,-1,408.7213,320.56593)" d="M0 0V-23.983H-9.81V.198L-37.36 45.387H-26.757L-4.558 8.82 17.739 45.387H27.55Z"/>
<path transform="matrix(1,0,0,-1,231.7209,300.8895)" d="M0 0C4.774-5.592 5.307-12.975 1.189-16.49-2.928-20.005-10.136-18.321-14.911-12.728-19.684-7.136-20.216 .247-16.099 3.761-11.982 7.276-4.774 5.592 0 0" fill="#e59a02"/>
<path transform="matrix(1,0,0,-1,273.9894,293.6408)" d="M0 0C-1.71-7.152 1.173-13.969 6.438-15.228 11.704-16.486 17.358-11.709 19.067-4.558 20.777 2.594 17.894 9.412 12.629 10.67 7.364 11.928 1.71 7.152 0 0" fill="#e59a02"/>
<path transform="matrix(1,0,0,-1,252.4974,279.5874)" d="M0 0C-1.003-7.284 2.531-13.788 7.894-14.526 13.257-15.265 18.418-9.958 19.42-2.674 20.424 4.61 16.89 11.113 11.527 11.852 6.164 12.59 1.003 7.284 0 0" fill="#e59a02"/>
<path transform="matrix(1,0,0,-1,228.1754,291.8211)" d="M0 0C3.58-6.423 10.314-9.493 15.044-6.858 19.772-4.223 20.704 3.12 17.125 9.543 13.545 15.966 6.81 19.036 2.081 16.401-2.648 13.766-3.58 6.423 0 0" fill="#e59a02"/>
<path transform="matrix(1,0,0,-1,249.7597,297.8858)" d="M0 0C-1.499-.874-2.834-2.074-3.895-3.445-7.128-7.624-7.524-12.99-9.37-17.767-11.131-22.325-15.425-25.24-18.053-29.237-20.372-32.766-21.345-37.223-20.393-41.337-19.441-45.451-16.484-49.119-12.545-50.64-1.411-54.938 5.728-42.835 16.092-43.108 18.468-43.171 20.752-44.018 23.108-44.336 31.006-45.401 39.878-39.714 40.947-31.529 41.475-27.494 39.994-23.245 37.074-20.41 33.29-16.738 27.679-15.652 23.427-12.536 20.3-10.244 18.061-6.972 15.436-4.12 12.81-1.268 9.462 1.315 5.588 1.48 3.622 1.564 1.704 .993 0 0" fill="#e59a02"/>
</g>
</g>
</svg>
